<mxfile host="Electron" modified="2024-03-08T07:13:06.893Z" agent="Mozilla/5.0 (Macintosh; Intel Mac OS X 10_15_7) AppleWebKit/537.36 (KHTML, like Gecko) draw.io/23.1.5 Chrome/120.0.6099.109 Electron/28.1.0 Safari/537.36" etag="FfGp0seQPw6fSoLcx-hy" version="23.1.5" type="device" pages="5">
  <diagram name="1_1" id="VdWact95R3ZrHPUHWGP3">
    <mxGraphModel dx="794" dy="1142" grid="1" gridSize="10" guides="1" tooltips="1" connect="1" arrows="1" fold="1" page="1" pageScale="1" pageWidth="320" pageHeight="260" math="0" shadow="0">
      <root>
        <mxCell id="0" />
        <mxCell id="1" parent="0" />
        <mxCell id="u6eK8MBNWqOHnzkenwlq-3" value="&amp;nbsp;3 + 4&amp;nbsp;" style="edgeStyle=orthogonalEdgeStyle;rounded=0;orthogonalLoop=1;jettySize=auto;html=1;exitX=0.25;exitY=0;exitDx=0;exitDy=0;entryX=0.5;entryY=0;entryDx=0;entryDy=0;fillColor=#f5f5f5;strokeColor=#666666;" parent="1" source="nv63Od1LlB7BwaC0whO8-1" target="nv63Od1LlB7BwaC0whO8-3" edge="1">
          <mxGeometry relative="1" as="geometry">
            <Array as="points">
              <mxPoint x="50" y="40" />
              <mxPoint x="180" y="40" />
            </Array>
          </mxGeometry>
        </mxCell>
        <mxCell id="u6eK8MBNWqOHnzkenwlq-4" value="&amp;nbsp;3 + 2&amp;nbsp;" style="edgeStyle=orthogonalEdgeStyle;rounded=0;orthogonalLoop=1;jettySize=auto;html=1;exitX=0.75;exitY=0;exitDx=0;exitDy=0;entryX=0.5;entryY=0;entryDx=0;entryDy=0;fillColor=#f5f5f5;strokeColor=#666666;" parent="1" source="nv63Od1LlB7BwaC0whO8-1" target="nv63Od1LlB7BwaC0whO8-2" edge="1">
          <mxGeometry relative="1" as="geometry" />
        </mxCell>
        <mxCell id="nv63Od1LlB7BwaC0whO8-1" value="3" style="rounded=0;whiteSpace=wrap;html=1;fontSize=14;fillColor=#f5f5f5;strokeColor=#666666;fontColor=#333333;" parent="1" vertex="1">
          <mxGeometry x="40" y="80" width="40" height="40" as="geometry" />
        </mxCell>
        <mxCell id="u6eK8MBNWqOHnzkenwlq-2" style="edgeStyle=orthogonalEdgeStyle;rounded=0;orthogonalLoop=1;jettySize=auto;html=1;exitX=0.5;exitY=1;exitDx=0;exitDy=0;entryX=0.5;entryY=0;entryDx=0;entryDy=0;fillColor=#f5f5f5;strokeColor=#666666;" parent="1" source="46o2pT9ANN71txM1nCcm-1" target="nv63Od1LlB7BwaC0whO8-12" edge="1">
          <mxGeometry relative="1" as="geometry" />
        </mxCell>
        <mxCell id="nv63Od1LlB7BwaC0whO8-2" value="2" style="rounded=0;whiteSpace=wrap;html=1;fontSize=14;fillColor=#f5f5f5;strokeColor=#666666;fontColor=#333333;" parent="1" vertex="1">
          <mxGeometry x="100" y="80" width="40" height="40" as="geometry" />
        </mxCell>
        <mxCell id="OTF3Yyp0MwZzzAG4lx8N-1" style="edgeStyle=orthogonalEdgeStyle;rounded=0;orthogonalLoop=1;jettySize=auto;html=1;exitX=0.5;exitY=1;exitDx=0;exitDy=0;entryX=0.5;entryY=0;entryDx=0;entryDy=0;fillColor=#f5f5f5;strokeColor=#666666;" parent="1" source="nv63Od1LlB7BwaC0whO8-3" target="nv63Od1LlB7BwaC0whO8-14" edge="1">
          <mxGeometry relative="1" as="geometry" />
        </mxCell>
        <mxCell id="nv63Od1LlB7BwaC0whO8-3" value="4" style="rounded=0;whiteSpace=wrap;html=1;fontSize=14;fillColor=#f5f5f5;strokeColor=#666666;fontColor=#333333;" parent="1" vertex="1">
          <mxGeometry x="160" y="80" width="40" height="40" as="geometry" />
        </mxCell>
        <mxCell id="nv63Od1LlB7BwaC0whO8-12" value="5" style="rounded=0;whiteSpace=wrap;html=1;fontSize=14;fillColor=#f5f5f5;strokeColor=#666666;fontStyle=0;fontColor=#333333;" parent="1" vertex="1">
          <mxGeometry x="100" y="180" width="40" height="40" as="geometry" />
        </mxCell>
        <mxCell id="nv63Od1LlB7BwaC0whO8-14" value="7" style="rounded=0;whiteSpace=wrap;html=1;fontSize=14;fillColor=#f5f5f5;strokeColor=#666666;fontColor=#333333;" parent="1" vertex="1">
          <mxGeometry x="160" y="180" width="40" height="40" as="geometry" />
        </mxCell>
        <mxCell id="46o2pT9ANN71txM1nCcm-1" value="nums" style="text;html=1;align=center;verticalAlign=middle;whiteSpace=wrap;rounded=0;fontSize=10;" parent="1" vertex="1">
          <mxGeometry x="40" y="120" width="160" height="20" as="geometry" />
        </mxCell>
        <mxCell id="y743vjSonsJhA4KVwRWZ-1" value="6" style="rounded=0;whiteSpace=wrap;html=1;fontSize=14;fillColor=#f5f5f5;strokeColor=#666666;fontColor=#333333;" parent="1" vertex="1">
          <mxGeometry x="240" y="80" width="40" height="40" as="geometry" />
        </mxCell>
        <mxCell id="y743vjSonsJhA4KVwRWZ-2" value="target" style="text;html=1;align=center;verticalAlign=middle;whiteSpace=wrap;rounded=0;fontSize=10;" parent="1" vertex="1">
          <mxGeometry x="240" y="120" width="40" height="20" as="geometry" />
        </mxCell>
      </root>
    </mxGraphModel>
  </diagram>
  <diagram name="1_2" id="6NTdhhrDKo1hCrSes3XH">
    <mxGraphModel dx="794" dy="1142" grid="1" gridSize="10" guides="1" tooltips="1" connect="1" arrows="1" fold="1" page="1" pageScale="1" pageWidth="320" pageHeight="360" math="0" shadow="0">
      <root>
        <mxCell id="Env5wDa3-ul8XCWj3TZE-0" />
        <mxCell id="Env5wDa3-ul8XCWj3TZE-1" parent="Env5wDa3-ul8XCWj3TZE-0" />
        <mxCell id="Env5wDa3-ul8XCWj3TZE-4" value="3" style="rounded=0;whiteSpace=wrap;html=1;fontSize=14;fillColor=#f5f5f5;strokeColor=#666666;fontColor=#333333;" parent="Env5wDa3-ul8XCWj3TZE-1" vertex="1">
          <mxGeometry x="40" y="60" width="40" height="40" as="geometry" />
        </mxCell>
        <mxCell id="NUzDEfB6KZePFDAaPvhe-0" value="&amp;nbsp;2 + 4&amp;nbsp;" style="edgeStyle=orthogonalEdgeStyle;rounded=0;orthogonalLoop=1;jettySize=auto;html=1;exitX=0.5;exitY=0;exitDx=0;exitDy=0;entryX=0.5;entryY=0;entryDx=0;entryDy=0;fillColor=#f5f5f5;strokeColor=#666666;" parent="Env5wDa3-ul8XCWj3TZE-1" source="Env5wDa3-ul8XCWj3TZE-6" target="Env5wDa3-ul8XCWj3TZE-8" edge="1">
          <mxGeometry relative="1" as="geometry" />
        </mxCell>
        <mxCell id="Env5wDa3-ul8XCWj3TZE-6" value="2" style="rounded=0;whiteSpace=wrap;html=1;fontSize=14;fillColor=#f5f5f5;strokeColor=#666666;fontColor=#333333;" parent="Env5wDa3-ul8XCWj3TZE-1" vertex="1">
          <mxGeometry x="100" y="60" width="40" height="40" as="geometry" />
        </mxCell>
        <mxCell id="Env5wDa3-ul8XCWj3TZE-8" value="4" style="rounded=0;whiteSpace=wrap;html=1;fontSize=14;fillColor=#f5f5f5;strokeColor=#666666;fontColor=#333333;" parent="Env5wDa3-ul8XCWj3TZE-1" vertex="1">
          <mxGeometry x="160" y="60" width="40" height="40" as="geometry" />
        </mxCell>
        <mxCell id="CubrjU6dIXOkjV_wu-Gp-2" style="edgeStyle=orthogonalEdgeStyle;rounded=0;orthogonalLoop=1;jettySize=auto;html=1;exitX=0.5;exitY=1;exitDx=0;exitDy=0;entryX=0.5;entryY=0;entryDx=0;entryDy=0;fillColor=#f5f5f5;strokeColor=#666666;" parent="Env5wDa3-ul8XCWj3TZE-1" source="Env5wDa3-ul8XCWj3TZE-10" target="lBT97u84JXYTIlj_wOzR-1" edge="1">
          <mxGeometry relative="1" as="geometry" />
        </mxCell>
        <mxCell id="Env5wDa3-ul8XCWj3TZE-10" value="6" style="rounded=0;whiteSpace=wrap;html=1;fontSize=14;fillColor=#ffe6cc;strokeColor=#d79b00;fontStyle=0" parent="Env5wDa3-ul8XCWj3TZE-1" vertex="1">
          <mxGeometry x="160" y="180" width="40" height="40" as="geometry" />
        </mxCell>
        <mxCell id="msk4PVzX3fZnZM4PvKd4-0" value="1" style="text;html=1;align=center;verticalAlign=middle;whiteSpace=wrap;rounded=0;fillColor=#dae8fc;strokeColor=#6c8ebf;fontSize=12;" parent="Env5wDa3-ul8XCWj3TZE-1" vertex="1">
          <mxGeometry x="100" y="100" width="40" height="20" as="geometry" />
        </mxCell>
        <mxCell id="msk4PVzX3fZnZM4PvKd4-2" value="" style="edgeStyle=orthogonalEdgeStyle;rounded=0;orthogonalLoop=1;jettySize=auto;html=1;exitX=0.5;exitY=1;exitDx=0;exitDy=0;entryX=0.5;entryY=0;entryDx=0;entryDy=0;" parent="Env5wDa3-ul8XCWj3TZE-1" source="Env5wDa3-ul8XCWj3TZE-8" target="msk4PVzX3fZnZM4PvKd4-1" edge="1">
          <mxGeometry relative="1" as="geometry">
            <mxPoint x="180" y="100" as="sourcePoint" />
            <mxPoint x="180" y="140" as="targetPoint" />
          </mxGeometry>
        </mxCell>
        <mxCell id="msk4PVzX3fZnZM4PvKd4-3" style="edgeStyle=orthogonalEdgeStyle;rounded=0;orthogonalLoop=1;jettySize=auto;html=1;exitX=0.5;exitY=1;exitDx=0;exitDy=0;entryX=0.5;entryY=0;entryDx=0;entryDy=0;fillColor=#f5f5f5;strokeColor=#666666;" parent="Env5wDa3-ul8XCWj3TZE-1" source="msk4PVzX3fZnZM4PvKd4-1" target="Env5wDa3-ul8XCWj3TZE-10" edge="1">
          <mxGeometry relative="1" as="geometry" />
        </mxCell>
        <mxCell id="msk4PVzX3fZnZM4PvKd4-1" value="2" style="text;html=1;align=center;verticalAlign=middle;whiteSpace=wrap;rounded=0;fillColor=#d5e8d4;strokeColor=#82b366;fontSize=12;" parent="Env5wDa3-ul8XCWj3TZE-1" vertex="1">
          <mxGeometry x="160" y="100" width="40" height="20" as="geometry" />
        </mxCell>
        <mxCell id="lBT97u84JXYTIlj_wOzR-0" value="1" style="text;html=1;align=center;verticalAlign=middle;whiteSpace=wrap;rounded=0;fillColor=#dae8fc;strokeColor=#6c8ebf;fontSize=12;" parent="Env5wDa3-ul8XCWj3TZE-1" vertex="1">
          <mxGeometry x="160" y="280" width="40" height="20" as="geometry" />
        </mxCell>
        <mxCell id="lBT97u84JXYTIlj_wOzR-1" value="2" style="text;html=1;align=center;verticalAlign=middle;whiteSpace=wrap;rounded=0;fillColor=#d5e8d4;strokeColor=#82b366;fontSize=12;" parent="Env5wDa3-ul8XCWj3TZE-1" vertex="1">
          <mxGeometry x="160" y="260" width="40" height="20" as="geometry" />
        </mxCell>
        <mxCell id="CubrjU6dIXOkjV_wu-Gp-0" value="nums" style="text;html=1;align=center;verticalAlign=middle;whiteSpace=wrap;rounded=0;fontSize=10;" parent="Env5wDa3-ul8XCWj3TZE-1" vertex="1">
          <mxGeometry x="40" y="120" width="160" height="20" as="geometry" />
        </mxCell>
        <mxCell id="A9JWBbgFt9czH1bm582D-0" value="result" style="text;html=1;align=center;verticalAlign=middle;whiteSpace=wrap;rounded=0;fontSize=10;" parent="Env5wDa3-ul8XCWj3TZE-1" vertex="1">
          <mxGeometry x="160" y="300" width="40" height="20" as="geometry" />
        </mxCell>
        <mxCell id="XzvhQpc05ySSJrV0-GmF-0" value="6" style="rounded=0;whiteSpace=wrap;html=1;fontSize=14;fillColor=#ffe6cc;strokeColor=#d79b00;" parent="Env5wDa3-ul8XCWj3TZE-1" vertex="1">
          <mxGeometry x="240" y="60" width="40" height="40" as="geometry" />
        </mxCell>
        <mxCell id="XzvhQpc05ySSJrV0-GmF-1" value="target" style="text;html=1;align=center;verticalAlign=middle;whiteSpace=wrap;rounded=0;fontSize=10;" parent="Env5wDa3-ul8XCWj3TZE-1" vertex="1">
          <mxGeometry x="240" y="100" width="40" height="20" as="geometry" />
        </mxCell>
      </root>
    </mxGraphModel>
  </diagram>
  <diagram name="2_1" id="XxaEcn1D0qPyR1fZYPSp">
    <mxGraphModel dx="794" dy="782" grid="1" gridSize="10" guides="1" tooltips="1" connect="1" arrows="1" fold="1" page="1" pageScale="1" pageWidth="440" pageHeight="180" math="0" shadow="0">
      <root>
        <mxCell id="T0aFZszhNgqpVuCYx-Jp-0" />
        <mxCell id="T0aFZszhNgqpVuCYx-Jp-1" parent="T0aFZszhNgqpVuCYx-Jp-0" />
        <mxCell id="QRM8oQU4UzlQ6nvCtpdw-0" value="&amp;nbsp;6 - 3&amp;nbsp;" style="edgeStyle=orthogonalEdgeStyle;rounded=0;orthogonalLoop=1;jettySize=auto;html=1;exitX=0.5;exitY=0;exitDx=0;exitDy=0;entryX=0;entryY=0;entryDx=0;entryDy=0;fillColor=#dae8fc;strokeColor=#6c8ebf;" parent="T0aFZszhNgqpVuCYx-Jp-1" source="T0aFZszhNgqpVuCYx-Jp-5" target="o7sykWjbCYMo3zEpBdOg-0" edge="1">
          <mxGeometry relative="1" as="geometry" />
        </mxCell>
        <mxCell id="T0aFZszhNgqpVuCYx-Jp-5" value="3" style="rounded=0;whiteSpace=wrap;html=1;fontSize=14;fillColor=#dae8fc;strokeColor=#6c8ebf;" parent="T0aFZszhNgqpVuCYx-Jp-1" vertex="1">
          <mxGeometry x="40" y="420" width="40" height="40" as="geometry" />
        </mxCell>
        <mxCell id="T0aFZszhNgqpVuCYx-Jp-7" value="2" style="rounded=0;whiteSpace=wrap;html=1;fontSize=14;fillColor=#f5f5f5;strokeColor=#666666;fontColor=#333333;" parent="T0aFZszhNgqpVuCYx-Jp-1" vertex="1">
          <mxGeometry x="100" y="420" width="40" height="40" as="geometry" />
        </mxCell>
        <mxCell id="T0aFZszhNgqpVuCYx-Jp-9" value="4" style="rounded=0;whiteSpace=wrap;html=1;fontSize=14;fillColor=#f5f5f5;strokeColor=#666666;fontColor=#333333;" parent="T0aFZszhNgqpVuCYx-Jp-1" vertex="1">
          <mxGeometry x="160" y="420" width="40" height="40" as="geometry" />
        </mxCell>
        <mxCell id="gNd6d_jqr7xDEoWFJFC9-0" value="3" style="rounded=0;whiteSpace=wrap;html=1;fillColor=#dae8fc;strokeColor=#6c8ebf;" parent="T0aFZszhNgqpVuCYx-Jp-1" vertex="1">
          <mxGeometry x="240" y="420" width="40" height="20" as="geometry" />
        </mxCell>
        <mxCell id="o7sykWjbCYMo3zEpBdOg-0" value="0" style="rounded=0;whiteSpace=wrap;html=1;fillColor=#d5e8d4;strokeColor=#82b366;" parent="T0aFZszhNgqpVuCYx-Jp-1" vertex="1">
          <mxGeometry x="280" y="420" width="40" height="20" as="geometry" />
        </mxCell>
        <mxCell id="QRM8oQU4UzlQ6nvCtpdw-2" value="0" style="text;html=1;align=center;verticalAlign=middle;whiteSpace=wrap;rounded=0;fillColor=#d5e8d4;strokeColor=#82b366;fontSize=12;" parent="T0aFZszhNgqpVuCYx-Jp-1" vertex="1">
          <mxGeometry x="40" y="460" width="40" height="20" as="geometry" />
        </mxCell>
        <mxCell id="yTDn4l3EiDN0K1GzU3Fv-3" value="6" style="rounded=0;whiteSpace=wrap;html=1;fontSize=14;fillColor=#f5f5f5;strokeColor=#666666;fontColor=#333333;" parent="T0aFZszhNgqpVuCYx-Jp-1" vertex="1">
          <mxGeometry x="360" y="420" width="40" height="40" as="geometry" />
        </mxCell>
        <mxCell id="yTDn4l3EiDN0K1GzU3Fv-4" value="target" style="text;html=1;align=center;verticalAlign=middle;whiteSpace=wrap;rounded=0;fontSize=10;" parent="T0aFZszhNgqpVuCYx-Jp-1" vertex="1">
          <mxGeometry x="360" y="460" width="40" height="20" as="geometry" />
        </mxCell>
        <mxCell id="06B_3AP6DlyEyEVMyaAg-0" value="indices" style="text;html=1;align=center;verticalAlign=middle;whiteSpace=wrap;rounded=0;fontSize=10;" parent="T0aFZszhNgqpVuCYx-Jp-1" vertex="1">
          <mxGeometry x="240" y="440" width="80" height="20" as="geometry" />
        </mxCell>
        <mxCell id="w0vUjMAtA2a0V9WSxqP8-0" value="nums" style="text;html=1;align=center;verticalAlign=middle;whiteSpace=wrap;rounded=0;fontSize=10;" parent="T0aFZszhNgqpVuCYx-Jp-1" vertex="1">
          <mxGeometry x="40" y="480" width="160" height="20" as="geometry" />
        </mxCell>
      </root>
    </mxGraphModel>
  </diagram>
  <diagram name="2_2" id="wzsuC_Gn7wTHb8iYxTYp">
    <mxGraphModel dx="794" dy="782" grid="1" gridSize="10" guides="1" tooltips="1" connect="1" arrows="1" fold="1" page="1" pageScale="1" pageWidth="360" pageHeight="180" math="0" shadow="0">
      <root>
        <mxCell id="uHoaGakTNyucxiGyGj9e-0" />
        <mxCell id="uHoaGakTNyucxiGyGj9e-1" parent="uHoaGakTNyucxiGyGj9e-0" />
        <mxCell id="uHoaGakTNyucxiGyGj9e-3" value="3" style="rounded=0;whiteSpace=wrap;html=1;fontSize=14;fillColor=#f5f5f5;strokeColor=#666666;fontColor=#333333;" parent="uHoaGakTNyucxiGyGj9e-1" vertex="1">
          <mxGeometry x="40" y="420" width="40" height="40" as="geometry" />
        </mxCell>
        <mxCell id="HY8mtSBe5DoKQzCjIse6-0" value="&amp;nbsp;6 - 2&amp;nbsp;" style="edgeStyle=orthogonalEdgeStyle;rounded=0;orthogonalLoop=1;jettySize=auto;html=1;exitX=0.5;exitY=0;exitDx=0;exitDy=0;entryX=1;entryY=0;entryDx=0;entryDy=0;fillColor=#dae8fc;strokeColor=#6c8ebf;" parent="uHoaGakTNyucxiGyGj9e-1" source="uHoaGakTNyucxiGyGj9e-4" target="uHoaGakTNyucxiGyGj9e-6" edge="1">
          <mxGeometry relative="1" as="geometry" />
        </mxCell>
        <mxCell id="uHoaGakTNyucxiGyGj9e-4" value="2" style="rounded=0;whiteSpace=wrap;html=1;fontSize=14;fillColor=#dae8fc;strokeColor=#6c8ebf;" parent="uHoaGakTNyucxiGyGj9e-1" vertex="1">
          <mxGeometry x="100" y="420" width="40" height="40" as="geometry" />
        </mxCell>
        <mxCell id="uHoaGakTNyucxiGyGj9e-5" value="4" style="rounded=0;whiteSpace=wrap;html=1;fontSize=14;fillColor=#f5f5f5;strokeColor=#666666;fontColor=#333333;" parent="uHoaGakTNyucxiGyGj9e-1" vertex="1">
          <mxGeometry x="160" y="420" width="40" height="40" as="geometry" />
        </mxCell>
        <mxCell id="uHoaGakTNyucxiGyGj9e-6" value="3" style="rounded=0;whiteSpace=wrap;html=1;fillColor=#f5f5f5;strokeColor=#666666;fontColor=#333333;" parent="uHoaGakTNyucxiGyGj9e-1" vertex="1">
          <mxGeometry x="240" y="420" width="40" height="20" as="geometry" />
        </mxCell>
        <mxCell id="uHoaGakTNyucxiGyGj9e-7" value="0" style="rounded=0;whiteSpace=wrap;html=1;fillColor=#f5f5f5;strokeColor=#666666;fontColor=#333333;" parent="uHoaGakTNyucxiGyGj9e-1" vertex="1">
          <mxGeometry x="280" y="420" width="40" height="20" as="geometry" />
        </mxCell>
        <mxCell id="uHoaGakTNyucxiGyGj9e-8" value="1" style="text;html=1;align=center;verticalAlign=middle;whiteSpace=wrap;rounded=0;fillColor=#d5e8d4;strokeColor=#82b366;fontSize=12;" parent="uHoaGakTNyucxiGyGj9e-1" vertex="1">
          <mxGeometry x="100" y="460" width="40" height="20" as="geometry" />
        </mxCell>
        <mxCell id="QwxLGGNhnlB5KkSgBf8h-0" value="4" style="rounded=0;whiteSpace=wrap;html=1;fillColor=#dae8fc;strokeColor=#6c8ebf;" parent="uHoaGakTNyucxiGyGj9e-1" vertex="1">
          <mxGeometry x="240" y="440" width="40" height="20" as="geometry" />
        </mxCell>
        <mxCell id="QwxLGGNhnlB5KkSgBf8h-1" value="1" style="rounded=0;whiteSpace=wrap;html=1;fillColor=#d5e8d4;strokeColor=#82b366;" parent="uHoaGakTNyucxiGyGj9e-1" vertex="1">
          <mxGeometry x="280" y="440" width="40" height="20" as="geometry" />
        </mxCell>
        <mxCell id="Rpkay1gJ6-qSlvxBLk7O-0" value="nums" style="text;html=1;align=center;verticalAlign=middle;whiteSpace=wrap;rounded=0;fontSize=10;" parent="uHoaGakTNyucxiGyGj9e-1" vertex="1">
          <mxGeometry x="40" y="480" width="160" height="20" as="geometry" />
        </mxCell>
        <mxCell id="bwa0waogLH2_cG2eHcV2-0" value="indices" style="text;html=1;align=center;verticalAlign=middle;whiteSpace=wrap;rounded=0;fontSize=10;" parent="uHoaGakTNyucxiGyGj9e-1" vertex="1">
          <mxGeometry x="240" y="460" width="80" height="20" as="geometry" />
        </mxCell>
      </root>
    </mxGraphModel>
  </diagram>
  <diagram name="2_3" id="-r8IqurDU5i2XIWOiVry">
    <mxGraphModel dx="794" dy="622" grid="1" gridSize="10" guides="1" tooltips="1" connect="1" arrows="1" fold="1" page="1" pageScale="1" pageWidth="360" pageHeight="260" math="0" shadow="0">
      <root>
        <mxCell id="x3-lbS9V5egiwmVqFyMv-0" />
        <mxCell id="x3-lbS9V5egiwmVqFyMv-1" parent="x3-lbS9V5egiwmVqFyMv-0" />
        <mxCell id="x3-lbS9V5egiwmVqFyMv-2" value="3" style="rounded=0;whiteSpace=wrap;html=1;fontSize=14;fillColor=#f5f5f5;strokeColor=#666666;fontColor=#333333;" parent="x3-lbS9V5egiwmVqFyMv-1" vertex="1">
          <mxGeometry x="40" y="580" width="40" height="40" as="geometry" />
        </mxCell>
        <mxCell id="x3-lbS9V5egiwmVqFyMv-4" value="2" style="rounded=0;whiteSpace=wrap;html=1;fontSize=14;fillColor=#f5f5f5;strokeColor=#666666;fontColor=#333333;" parent="x3-lbS9V5egiwmVqFyMv-1" vertex="1">
          <mxGeometry x="100" y="580" width="40" height="40" as="geometry" />
        </mxCell>
        <mxCell id="BA9nL6O89HBkCJXDBaPu-0" value="&amp;nbsp;4 = 4&amp;nbsp;" style="edgeStyle=orthogonalEdgeStyle;rounded=0;orthogonalLoop=1;jettySize=auto;html=1;exitX=0.5;exitY=0;exitDx=0;exitDy=0;entryX=0;entryY=0;entryDx=0;entryDy=0;fillColor=#dae8fc;strokeColor=#6c8ebf;" parent="x3-lbS9V5egiwmVqFyMv-1" source="x3-lbS9V5egiwmVqFyMv-5" target="x3-lbS9V5egiwmVqFyMv-7" edge="1">
          <mxGeometry relative="1" as="geometry" />
        </mxCell>
        <mxCell id="x3-lbS9V5egiwmVqFyMv-5" value="4" style="rounded=0;whiteSpace=wrap;html=1;fontSize=14;fillColor=#dae8fc;strokeColor=#6c8ebf;" parent="x3-lbS9V5egiwmVqFyMv-1" vertex="1">
          <mxGeometry x="160" y="580" width="40" height="40" as="geometry" />
        </mxCell>
        <mxCell id="x3-lbS9V5egiwmVqFyMv-6" value="3" style="rounded=0;whiteSpace=wrap;html=1;fillColor=#f5f5f5;strokeColor=#666666;fontColor=#333333;" parent="x3-lbS9V5egiwmVqFyMv-1" vertex="1">
          <mxGeometry x="240" y="580" width="40" height="20" as="geometry" />
        </mxCell>
        <mxCell id="x3-lbS9V5egiwmVqFyMv-7" value="0" style="rounded=0;whiteSpace=wrap;html=1;fillColor=#f5f5f5;strokeColor=#666666;fontColor=#333333;" parent="x3-lbS9V5egiwmVqFyMv-1" vertex="1">
          <mxGeometry x="280" y="580" width="40" height="20" as="geometry" />
        </mxCell>
        <mxCell id="x3-lbS9V5egiwmVqFyMv-9" value="4" style="rounded=0;whiteSpace=wrap;html=1;fillColor=#dae8fc;strokeColor=#6c8ebf;fontStyle=0" parent="x3-lbS9V5egiwmVqFyMv-1" vertex="1">
          <mxGeometry x="240" y="600" width="40" height="20" as="geometry" />
        </mxCell>
        <mxCell id="IdBWg7-XxZp0AXmN8ZKC-1" style="edgeStyle=orthogonalEdgeStyle;rounded=0;orthogonalLoop=1;jettySize=auto;html=1;exitX=1;exitY=0;exitDx=0;exitDy=0;entryX=1;entryY=0;entryDx=0;entryDy=0;fillColor=#ffe6cc;strokeColor=#d79b00;" parent="x3-lbS9V5egiwmVqFyMv-1" source="x3-lbS9V5egiwmVqFyMv-10" target="BA9nL6O89HBkCJXDBaPu-4" edge="1">
          <mxGeometry relative="1" as="geometry">
            <Array as="points">
              <mxPoint x="340" y="600" />
              <mxPoint x="340" y="700" />
            </Array>
          </mxGeometry>
        </mxCell>
        <mxCell id="x3-lbS9V5egiwmVqFyMv-10" value="1" style="rounded=0;whiteSpace=wrap;html=1;fillColor=#ffe6cc;strokeColor=#d79b00;fontStyle=0" parent="x3-lbS9V5egiwmVqFyMv-1" vertex="1">
          <mxGeometry x="280" y="600" width="40" height="20" as="geometry" />
        </mxCell>
        <mxCell id="x3-lbS9V5egiwmVqFyMv-11" value="nums" style="text;html=1;align=center;verticalAlign=middle;whiteSpace=wrap;rounded=0;fontSize=10;" parent="x3-lbS9V5egiwmVqFyMv-1" vertex="1">
          <mxGeometry x="40" y="640" width="160" height="20" as="geometry" />
        </mxCell>
        <mxCell id="x3-lbS9V5egiwmVqFyMv-12" value="indices" style="text;html=1;align=center;verticalAlign=middle;whiteSpace=wrap;rounded=0;fontSize=10;" parent="x3-lbS9V5egiwmVqFyMv-1" vertex="1">
          <mxGeometry x="240" y="620" width="80" height="20" as="geometry" />
        </mxCell>
        <mxCell id="BA9nL6O89HBkCJXDBaPu-3" value="2" style="rounded=0;whiteSpace=wrap;html=1;fillColor=#d5e8d4;strokeColor=#82b366;fontStyle=0" parent="x3-lbS9V5egiwmVqFyMv-1" vertex="1">
          <mxGeometry x="280" y="680" width="40" height="20" as="geometry" />
        </mxCell>
        <mxCell id="BA9nL6O89HBkCJXDBaPu-4" value="1" style="rounded=0;whiteSpace=wrap;html=1;fillColor=#ffe6cc;strokeColor=#d79b00;fontStyle=0" parent="x3-lbS9V5egiwmVqFyMv-1" vertex="1">
          <mxGeometry x="280" y="700" width="40" height="20" as="geometry" />
        </mxCell>
        <mxCell id="UqV6nJX4xzRZH01PNaHz-0" style="edgeStyle=orthogonalEdgeStyle;rounded=0;orthogonalLoop=1;jettySize=auto;html=1;exitX=0.5;exitY=1;exitDx=0;exitDy=0;entryX=0;entryY=0;entryDx=0;entryDy=0;fillColor=#d5e8d4;strokeColor=#82b366;" parent="x3-lbS9V5egiwmVqFyMv-1" source="ysyCpqjIowIYb2DHfN7_-0" target="BA9nL6O89HBkCJXDBaPu-4" edge="1">
          <mxGeometry relative="1" as="geometry">
            <Array as="points">
              <mxPoint x="180" y="700" />
            </Array>
          </mxGeometry>
        </mxCell>
        <mxCell id="ysyCpqjIowIYb2DHfN7_-0" value="2" style="text;html=1;align=center;verticalAlign=middle;whiteSpace=wrap;rounded=0;fillColor=#d5e8d4;strokeColor=#82b366;fontSize=12;" parent="x3-lbS9V5egiwmVqFyMv-1" vertex="1">
          <mxGeometry x="160" y="620" width="40" height="20" as="geometry" />
        </mxCell>
        <mxCell id="U4o4ejLauhZ15rMqOxvD-0" value="result" style="text;html=1;align=center;verticalAlign=middle;whiteSpace=wrap;rounded=0;fontSize=10;" parent="x3-lbS9V5egiwmVqFyMv-1" vertex="1">
          <mxGeometry x="280" y="720" width="40" height="20" as="geometry" />
        </mxCell>
      </root>
    </mxGraphModel>
  </diagram>
</mxfile>
